<?xml version="1.0" standalone="no"?>
<!DOCTYPE svg PUBLIC "-//W3C//DTD SVG 20010904//EN"
 "http://www.w3.org/TR/2001/REC-SVG-20010904/DTD/svg10.dtd">
<svg version="1.0" xmlns="http://www.w3.org/2000/svg"
 width="3500.000000pt" height="2000.000000pt" viewBox="0 0 3500.000000 2000.000000"
 preserveAspectRatio="xMidYMid meet">

<g transform="translate(0.000000,2000.000000) scale(0.100000,-0.100000)"
fill="#fff" stroke="none">
<path d="M6990 13235 l0 -2645 170 0 170 0 0 2645 0 2645 -170 0 -170 0 0
-2645z"/>
<path d="M7600 13235 l0 -2645 160 0 160 0 -2 2643 -3 2642 -157 3 -158 3 0
-2646z"/>
<path d="M8176 15864 c-3 -8 -6 -359 -6 -779 0 -601 3 -764 13 -767 22 -8 185
-10 241 -3 l56 7 -2 777 -3 776 -146 3 c-127 2 -147 0 -153 -14z"/>
<path d="M10657 15873 c-4 -3 -7 -1194 -7 -2645 l0 -2638 160 0 160 0 0 2645
0 2645 -153 0 c-85 0 -157 -3 -160 -7z"/>
<path d="M11267 15873 c-4 -3 -7 -1194 -7 -2645 l0 -2638 160 0 160 0 0 2645
0 2645 -153 0 c-85 0 -157 -3 -160 -7z"/>
<path d="M8732 14743 l3 -428 725 0 c399 0 776 1 838 3 l112 3 0 425 0 424
-840 0 -840 0 2 -427z"/>
<path d="M8177 14043 c-4 -3 -7 -138 -7 -300 l0 -293 1118 2 1117 3 3 158 3
157 -386 0 -385 0 0 140 0 140 -728 0 c-401 0 -732 -3 -735 -7z"/>
<path d="M8174 13177 c-2 -7 -3 -74 -2 -148 l3 -134 1118 -3 1117 -2 0 150 0
150 -1115 0 c-906 0 -1117 -2 -1121 -13z"/>
<path d="M6341 11800 l-1 -1210 170 0 170 0 0 1210 0 1210 -169 0 -169 0 -1
-1210z"/>
<path d="M8544 12607 c-7 -20 0 -287 9 -287 4 0 423 0 932 0 l925 0 0 150 0
150 -930 0 c-754 0 -932 -2 -936 -13z"/>
<path d="M8177 12054 c-4 -4 -7 -335 -7 -736 l0 -728 155 0 155 0 -2 733 -3
732 -146 3 c-80 1 -148 -1 -152 -4z"/>
<path d="M8920 10155 c-325 -53 -588 -251 -725 -549 -96 -206 -111 -488 -38
-721 100 -321 375 -566 718 -641 128 -27 333 -23 460 10 106 28 235 84 311
137 121 83 241 224 313 366 108 215 126 524 45 770 -145 440 -603 705 -1084
628z m337 -436 c114 -37 200 -112 260 -226 44 -84 63 -172 63 -294 0 -180 -41
-297 -140 -403 -96 -102 -202 -146 -355 -146 -146 0 -258 43 -349 135 -121
120 -173 316 -140 530 36 241 194 403 419 428 64 7 183 -5 242 -24z"/>
<path d="M15992 10160 c-368 -52 -666 -294 -782 -633 -40 -119 -53 -224 -47
-385 8 -215 63 -372 191 -543 270 -359 791 -479 1211 -279 253 121 430 337
507 619 18 63 21 106 22 256 1 158 -2 190 -22 264 -74 269 -247 484 -487 603
-80 40 -175 73 -255 88 -77 15 -263 20 -338 10z m309 -439 c206 -65 329 -264
329 -535 0 -97 -27 -214 -67 -289 -62 -115 -186 -210 -311 -236 -233 -49 -458
48 -555 241 -114 225 -75 550 85 710 61 60 168 114 253 127 78 12 194 4 266
-18z"/>
<path d="M6760 10141 c-402 -89 -667 -379 -726 -796 -4 -27 -7 -102 -7 -165 2
-283 102 -524 291 -701 129 -121 270 -192 452 -229 144 -30 349 -24 488 14
287 79 497 272 597 547 14 39 25 72 25 75 0 2 -115 4 -255 4 l-255 0 -31 -50
c-91 -149 -297 -223 -482 -175 -228 59 -357 250 -357 530 0 173 49 311 143
406 200 203 545 178 694 -49 l38 -60 253 0 c138 -1 252 3 252 7 0 14 -37 115
-63 171 -78 168 -242 329 -413 405 -136 60 -217 77 -394 81 -135 3 -181 0
-250 -15z"/>
<path d="M13833 10145 c-353 -64 -631 -317 -722 -657 -59 -217 -48 -478 29
-676 78 -201 241 -382 430 -477 291 -146 685 -138 959 20 183 106 305 243 394
445 l29 65 0 225 0 225 -449 3 c-246 2 -472 0 -500 -3 l-53 -6 0 -170 0 -169
290 0 c160 0 290 -2 290 -5 0 -3 -15 -35 -32 -72 -100 -205 -331 -297 -582
-233 -184 47 -304 169 -352 360 -25 97 -22 275 6 365 73 235 246 355 495 343
142 -7 201 -32 288 -119 l67 -69 250 0 c165 0 250 4 250 10 0 6 -14 47 -31 91
-105 273 -359 465 -672 508 -103 14 -294 12 -384 -4z"/>
<path d="M10340 9189 l0 -951 443 5 c402 4 450 6 528 25 201 48 341 123 470
251 134 134 219 306 250 501 17 110 7 345 -20 443 -79 297 -288 520 -573 615
-168 56 -238 62 -690 62 l-408 0 0 -951z m848 535 c242 -55 382 -251 382 -534
0 -289 -147 -482 -403 -531 -27 -5 -119 -10 -205 -11 l-157 -2 -3 544 c-1 319
2 546 7 549 18 11 317 0 379 -15z"/>
<path d="M12330 9190 l0 -950 230 0 230 0 0 950 0 950 -230 0 -230 0 0 -950z"/>
<path d="M17883 9968 c-35 -95 -189 -521 -343 -947 -154 -426 -280 -776 -280
-778 0 -2 109 -3 243 -3 l242 0 56 168 55 167 355 0 354 0 56 -165 56 -165
248 -3 c233 -2 247 -1 240 15 -4 10 -128 353 -276 763 -149 410 -300 828 -337
930 l-67 185 -270 3 -270 2 -62 -172z m446 -692 c61 -181 111 -331 111 -333 0
-1 -103 -3 -229 -3 l-229 0 108 324 c105 315 118 351 125 344 2 -2 54 -152
114 -332z"/>
<path d="M19400 9190 l0 -950 230 0 c177 0 230 3 231 13 0 6 0 154 0 328 -1
174 2 331 5 348 7 31 8 32 58 29 l50 -3 86 -155 c47 -85 130 -236 184 -335 55
-99 105 -190 113 -202 13 -23 15 -23 273 -23 l261 0 -17 33 c-10 17 -104 181
-210 363 -107 182 -196 339 -200 348 -4 10 -1 16 9 16 8 0 52 19 97 41 195 98
305 282 303 509 -3 301 -196 518 -513 576 -56 10 -190 13 -517 14 l-443 0 0
-950z m860 549 c89 -29 140 -108 140 -218 0 -80 -23 -134 -73 -178 -52 -46
-91 -53 -283 -53 -135 0 -173 3 -177 14 -7 17 -7 393 -1 426 l5 25 177 -2 c98
-2 192 -8 212 -14z"/>
<path d="M21190 9190 l0 -950 230 0 230 0 2 417 3 416 284 -374 c156 -206 300
-393 318 -416 l34 -43 280 0 c153 0 279 2 279 6 0 3 -167 217 -370 475 -204
258 -373 476 -376 483 -3 7 156 218 355 469 199 251 361 459 361 462 0 3 -122
4 -272 3 l-271 -3 -282 -372 c-155 -204 -296 -388 -313 -410 l-31 -38 -1 413
0 412 -230 0 -230 0 0 -950z"/>
<path d="M25545 10116 c-154 -36 -271 -104 -347 -203 -66 -88 -90 -157 -96
-277 -8 -165 26 -263 121 -358 86 -86 167 -121 507 -218 184 -53 254 -86 313
-149 51 -55 69 -105 69 -191 -1 -136 -88 -245 -230 -286 -70 -21 -225 -20
-296 0 -105 31 -191 123 -223 238 l-16 58 -129 0 -128 0 0 -37 c1 -186 154
-370 367 -444 145 -50 319 -58 473 -23 222 51 390 219 426 425 30 171 -12 315
-122 424 -87 86 -142 109 -539 230 -212 65 -296 122 -330 225 -54 161 43 329
215 374 78 21 209 14 285 -14 81 -30 177 -126 198 -196 l14 -49 129 -2 c71 -1
132 0 135 3 14 8 -14 113 -47 183 -63 129 -176 220 -339 271 -89 29 -317 37
-410 16z"/>
<path d="M26750 9166 l0 -946 125 0 125 0 0 394 0 394 273 4 c301 5 335 10
463 73 120 58 219 180 256 314 22 82 24 224 3 306 -49 187 -190 320 -400 377
-74 19 -110 21 -462 26 l-383 4 0 -946z m814 705 c133 -53 198 -164 192 -331
-6 -153 -74 -253 -206 -300 -59 -20 -88 -23 -307 -27 l-243 -5 0 347 0 347
253 -4 c237 -3 256 -5 311 -27z"/>
<path d="M28581 9207 c-178 -490 -332 -914 -343 -940 l-18 -48 133 3 132 3 75
207 75 208 410 0 410 0 74 -206 c41 -113 80 -208 86 -210 6 -3 65 -3 132 -2
l121 3 -299 825 c-164 454 -317 876 -340 938 l-41 112 -142 0 -141 0 -324
-893z m638 98 c88 -248 161 -454 161 -458 0 -4 -151 -7 -335 -7 -184 0 -335 2
-335 5 0 3 68 196 151 428 83 232 158 442 167 466 10 29 17 39 22 30 4 -8 80
-217 169 -464z"/>
<path d="M23210 8005 l0 -115 720 0 720 0 0 115 0 115 -720 0 -720 0 0 -115z"/>
</g>
</svg>
